<?xml version="1.0" encoding="UTF-8" standalone="no"?>
<!-- Created with Inkscape (http://www.inkscape.org/) -->

<svg
   xmlns:dc="http://purl.org/dc/elements/1.1/"
   xmlns:cc="http://creativecommons.org/ns#"
   xmlns:rdf="http://www.w3.org/1999/02/22-rdf-syntax-ns#"
   xmlns:svg="http://www.w3.org/2000/svg"
   xmlns="http://www.w3.org/2000/svg"
   xmlns:sodipodi="http://sodipodi.sourceforge.net/DTD/sodipodi-0.dtd"
   xmlns:inkscape="http://www.inkscape.org/namespaces/inkscape"
   width="210mm"
   height="297mm"
   viewBox="0 0 210 297"
   version="1.1"
   id="svg8"
   inkscape:version="0.92.5 (2060ec1f9f, 2020-04-08)"
   sodipodi:docname="pythons.svg">
  <defs
     id="defs2" />
  <sodipodi:namedview
     id="base"
     pagecolor="#ffffff"
     bordercolor="#666666"
     borderopacity="1.0"
     inkscape:pageopacity="0.0"
     inkscape:pageshadow="2"
     inkscape:zoom="1.4"
     inkscape:cx="1320.6594"
     inkscape:cy="465.09791"
     inkscape:document-units="mm"
     inkscape:current-layer="layer1"
     showgrid="false"
     inkscape:window-width="1920"
     inkscape:window-height="1016"
     inkscape:window-x="0"
     inkscape:window-y="27"
     inkscape:window-maximized="1" />
  <metadata
     id="metadata5">
    <rdf:RDF>
      <cc:Work
         rdf:about="">
        <dc:format>image/svg+xml</dc:format>
        <dc:type
           rdf:resource="http://purl.org/dc/dcmitype/StillImage" />
        <dc:title></dc:title>
      </cc:Work>
    </rdf:RDF>
  </metadata>
  <g
     inkscape:label="Layer 1"
     inkscape:groupmode="layer"
     id="layer1">
    <path
       style="fill:#00ff00;stroke:#000000;stroke-width:0.26458332px;stroke-linecap:butt;stroke-linejoin:miter;stroke-opacity:1"
       d="m 53.667452,197.51088 c -18.496801,2.81173 -22.570253,-5.58998 -28.746535,-9.3952 6.426,-3.95113 14.292747,7.59373 23.722137,3.50045"
       id="path823"
       inkscape:connector-curvature="0"
       sodipodi:nodetypes="ccc" />
    <path
       style="fill:#00ff00;stroke:#000000;stroke-width:0.20571327px;stroke-linecap:butt;stroke-linejoin:miter;stroke-opacity:1"
       d="m 137.44591,168.15468 c 0,0 17.53814,8.39871 3.59277,23.15285 -13.94537,14.75414 -80.399185,17.85519 -91.40272,2.4943 -11.003534,-15.36089 5.109319,-19.12696 5.109319,-19.12696"
       id="path821"
       inkscape:connector-curvature="0"
       sodipodi:nodetypes="czzc" />
    <path
       style="fill:#00ff00;stroke:#000000;stroke-width:0.21330622px;stroke-linecap:butt;stroke-linejoin:miter;stroke-opacity:1"
       d="m 126.91604,156.92966 c 0,0 17.72422,6.61889 7.13752,19.41731 -10.5867,12.79841 -66.372062,14.43437 -76.707978,2.15471 -10.335915,-12.27966 3.453269,-18.94074 3.453269,-18.94074"
       id="path819"
       inkscape:connector-curvature="0"
       sodipodi:nodetypes="czzc" />
    <path
       style="fill:#00ff00;stroke:#000000;stroke-width:0.26458332px;stroke-linecap:butt;stroke-linejoin:miter;stroke-opacity:1"
       d="m 75.770909,158.95529 c 8.641716,-10.24533 53.033581,-20.40872 51.182121,-3.0736 -1.85146,17.33512 -51.949673,22.08118 -64.679232,5.87993 -12.729559,-16.20125 14.299146,-22.38858 18.743596,-36.70439 4.44445,-14.3158 -10.834099,-22.81849 -1.603617,-29.666908 9.230482,-6.848421 36.064553,-1.524375 37.150463,6.414468 1.08591,7.93885 -19.415158,10.87341 -25.657874,4.81085 -6.242718,-6.06256 2.192266,14.52265 -2.405424,24.85606 -4.597685,10.33341 -15.301223,10.49885 -15.001823,23.07364 0.2994,12.57479 36.348651,9.88897 36.883191,2.93996"
       id="path817"
       inkscape:connector-curvature="0"
       sodipodi:nodetypes="czzzzzzzzc" />
    <path
       style="fill:none;stroke:#000000;stroke-width:0.29426956px;stroke-linecap:butt;stroke-linejoin:miter;stroke-opacity:1"
       d="m 99.879221,96.906237 c 1.347229,-2.619974 3.528499,-1.74473 4.527609,0"
       id="path825"
       inkscape:connector-curvature="0"
       sodipodi:nodetypes="cc" />
    <path
       style="fill:none;stroke:#000000;stroke-width:0.26458332px;stroke-linecap:butt;stroke-linejoin:miter;stroke-opacity:1"
       d="m 305.78274,99.318448 c -16.32055,-3.537645 -42.28289,11.000332 -32.41147,19.843762 14.21206,12.73202 31.24528,-11.51773 31.56101,-4.06326 0.44465,10.49867 -27.75787,58.64724 -7.08705,75.12277 12.34847,9.84225 19.80571,-10.89045 21.92261,-26.26934 0.57964,-4.21094 1.37497,-1.45293 1.32293,0.18898 -1.17787,37.16914 15.69727,21.66969 18.33185,-1.70089 0.33873,-3.00478 2.87911,-2.43839 3.2128,0.56696 3.16832,28.53525 15.3825,4.49739 16.44195,-7.74851 -2.66405,5.30674 -4.95063,8.22617 -7.74851,11.52827 -0.83062,0.98031 -2.24995,1.45711 -2.45684,0.189 -3.93342,-24.10938 -11.44675,-21.74749 -17.00893,4.34672 -0.55221,2.59062 -2.81902,2.45418 -2.64583,-0.18899 2.09198,-31.92827 -16.86449,-28.71986 -21.73364,4.53572 -0.29204,1.9946 -2.80939,4.31511 -4.72469,-0.18899 -5.07774,-11.94106 26.90179,-70.98641 3.02381,-76.162202 z"
       id="path827"
       inkscape:connector-curvature="0"
       sodipodi:nodetypes="sssssssscsssssss" />
  </g>
</svg>
